<svg width="48" height="16" viewBox="0 0 48 16" fill="none" xmlns="http://www.w3.org/2000/svg">
<path d="M-1.94049e-05 7.58226C-1.93304e-05 5.87772 1.22944 4.35931 3.68836 3.02703C6.14728 1.67515 9.28922 0.764102 13.1142 0.293885L13.1142 2.14537C10.3821 2.59599 8.21914 3.30132 6.6254 4.26135C4.98612 5.24097 4.16648 6.34794 4.16648 7.58226C4.16648 8.34636 4.508 9.08108 5.19103 9.78641C5.9196 10.5113 6.89861 11.1383 8.12807 11.6673C9.35753 12.1963 10.7919 12.6077 12.4312 12.9016C14.0705 13.1955 15.8008 13.3424 17.6222 13.3424C19.3526 13.3424 20.9919 13.2053 22.5401 12.931C24.1338 12.6763 25.5682 12.304 26.8432 11.8142C28.0271 11.3244 28.9833 10.7562 29.7119 10.1097C30.4405 9.46313 30.8731 8.7676 31.0097 8.02309L12.4312 8.02309L12.4312 7.37654C12.4312 6.37733 12.8865 5.4173 13.7972 4.49646C14.7535 3.59521 16.0512 2.81151 17.6905 2.14537C19.3298 1.45963 21.2195 0.930638 23.3597 0.558383C25.4999 0.186127 27.7539 -8.70809e-07 30.1217 -7.67307e-07C32.4896 -6.63805e-07 34.7208 0.186127 36.8154 0.558383C38.9556 0.950232 40.8453 1.49882 42.4846 2.20415C44.1239 2.90947 45.3989 3.71276 46.3096 4.61401C47.2203 5.53486 47.6757 6.50468 47.6757 7.52349C47.6757 9.24762 46.469 10.7856 44.0556 12.1375C41.5967 13.4698 38.432 14.371 34.5614 14.8412L34.5614 12.9898C37.2936 12.5391 39.4565 11.8436 41.0502 10.9032C42.6895 9.88437 43.5092 8.7676 43.5092 7.55287C43.5092 6.76918 43.1676 6.02467 42.4846 5.31934C41.8016 4.6336 40.8453 4.02624 39.6159 3.49724C38.3864 2.96825 36.9293 2.54701 35.2445 2.23353C33.6052 1.93965 31.8976 1.7927 30.1217 1.7927C26.8432 1.7927 23.9972 2.22374 21.5838 3.0858C19.0794 3.96746 17.5312 5.04504 16.9392 6.31855L35.2445 6.31855L35.2445 7.87615C35.2445 8.85577 34.7663 9.78641 33.8101 10.6681C32.8994 11.5497 31.6244 12.3334 29.9851 13.0192C28.3458 13.6853 26.4561 14.2045 24.3159 14.5768C22.1758 14.949 19.9445 15.1351 17.6222 15.1351C15.2088 15.1351 12.9321 14.9392 10.7919 14.5474C8.69726 14.1751 6.83031 13.6363 5.19103 12.931C3.55175 12.2257 2.27676 11.4126 1.36605 10.4917C0.455337 9.57089 -1.94495e-05 8.60107 -1.94049e-05 7.58226Z" fill="url(#paint0_linear_2004_13)"/>
<defs>
<linearGradient id="paint0_linear_2004_13" x1="23.8378" y1="-1.04198e-06" x2="23.8378" y2="15.1351" gradientUnits="userSpaceOnUse">
<stop stop-color="#49A9FF"/>
<stop offset="1" stop-color="#FC7CD9"/>
</linearGradient>
</defs>
</svg>
