<svg width="40" height="40" viewBox="0 0 40 40" fill="none" xmlns="http://www.w3.org/2000/svg">
<path d="M39.1065 0.8933C37.2743 -0.938965 32.9262 0.135878 27.5916 3.30783C25.2784 2.25377 22.7076 1.66596 20.0001 1.66596C9.87444 1.66596 1.66647 9.87455 1.66647 19.9996C1.66647 22.7084 2.25366 25.2792 3.30834 27.5912C0.135766 32.9256 -0.938453 37.2738 0.892563 39.106C2.72608 40.9383 7.0742 39.8641 12.4075 36.6915C14.7207 37.7449 17.2915 38.3334 20.0002 38.3334C30.1247 38.3334 38.3339 30.1254 38.3339 19.9997C38.3339 17.2922 37.7455 14.7214 36.6908 12.4088C39.8647 7.07424 40.9389 2.72557 39.1065 0.8933ZM9.87678 36.2033C5.5703 38.4798 2.8542 38.7092 2.07178 37.928C1.28928 37.1455 1.52006 34.4296 3.79663 30.1217C3.93209 29.8641 4.07491 29.6028 4.22147 29.3404C5.47147 31.4461 7.13038 33.2821 9.08959 34.7347C9.09327 34.7323 9.09569 34.7323 9.09811 34.7299C9.62061 34.454 10.154 34.1537 10.696 33.8314C9.80975 33.2345 8.98092 32.5509 8.21428 31.7855C6.6835 30.2535 5.48116 28.47 4.64248 26.4864C3.77334 24.432 3.33264 22.2506 3.33264 19.9996C3.33264 17.7487 3.77334 15.566 4.64248 13.5128C5.48108 11.528 6.6835 9.7458 8.21428 8.21439C9.74623 6.68299 11.5285 5.48127 13.5133 4.64205C15.5665 3.77353 17.7491 3.33283 20.0001 3.33283C22.2511 3.33283 24.4325 3.77353 26.4869 4.64205C28.4706 5.48127 30.254 6.68307 31.7848 8.21439C32.5513 8.98041 33.2349 9.80986 33.8319 10.6961C34.1541 10.1535 34.4544 9.6201 34.7303 9.09822C34.7315 9.09517 34.7327 9.09275 34.7351 9.08971C33.2813 7.13049 31.4465 5.47158 29.3408 4.22158C29.6033 4.07447 29.8645 3.93228 30.1221 3.79619C34.4287 1.51955 37.146 1.28947 37.9285 2.07135C38.7098 2.85385 38.4802 5.57049 36.2037 9.87713C35.0342 12.0903 33.4669 14.4785 31.5455 16.9761C29.5411 19.5823 27.2425 22.1861 24.7144 24.7142C22.1851 27.2422 19.5813 29.5408 16.9764 31.5464C14.4788 33.4666 12.0899 35.034 9.87678 36.2033ZM35.3578 26.4864C34.518 28.4701 33.3168 30.2535 31.7848 31.7855C30.254 33.3163 28.4706 34.5174 26.487 35.3573C24.4326 36.2263 22.25 36.6658 20.0002 36.6658C17.9787 36.6658 16.0123 36.3094 14.1445 35.6063C17.8457 33.1892 21.9142 29.8702 25.8925 25.8919C29.8708 21.9136 33.1898 17.8444 35.608 14.1432C36.31 16.011 36.6664 17.9775 36.6664 19.9996C36.6664 22.2506 36.2257 24.432 35.3578 26.4864Z" fill="#FFEA00"/>
</svg>
