<svg width="40" height="40" viewBox="0 0 40 40" fill="none" xmlns="http://www.w3.org/2000/svg">
<path d="M20 40C31.0457 40 40 31.0457 40 20C40 8.95431 31.0457 0 20 0C8.95431 0 0 8.95431 0 20C0 31.0457 8.95431 40 20 40Z" fill="white"/>
<path fill-rule="evenodd" clip-rule="evenodd" d="M9.17357 19.6563C14.9894 17.1223 18.8672 15.4516 20.8071 14.6442C26.3475 12.3409 27.5047 11.9409 28.2489 11.926C28.5249 11.9207 28.7956 12.002 29.0229 12.1586C29.1824 12.2961 29.284 12.4888 29.3075 12.6981C29.3476 12.9584 29.3588 13.2223 29.341 13.4851C29.0415 16.6479 27.741 24.2925 27.0805 27.8256C26.8015 29.3139 26.2508 29.8218 25.7168 29.8721C24.5596 29.9781 23.6703 29.1056 22.554 28.3707C20.7978 27.2191 19.8061 26.5102 18.1019 25.3791C16.1317 24.0767 17.4098 23.3679 18.5317 22.2032C18.8257 21.8981 23.9271 17.2544 24.0275 16.8339C24.0408 16.7718 24.0392 16.7075 24.0231 16.6461C24.0069 16.5847 23.9766 16.528 23.9345 16.4804C23.8734 16.4423 23.8043 16.4189 23.7326 16.4121C23.6609 16.4053 23.5886 16.4153 23.5215 16.4414C23.3466 16.4798 20.5423 18.3335 15.1085 22.0023C14.3122 22.5493 13.5909 22.816 12.9447 22.8023C12.2322 22.7856 10.8629 22.3986 9.84333 22.0581C8.59496 21.6525 7.61078 21.4386 7.68892 20.7558C7.73481 20.3986 8.22969 20.0321 9.17357 19.6563Z" fill="#111111"/>
</svg>
