<svg width="40" height="40" viewBox="0 0 40 40" fill="none" xmlns="http://www.w3.org/2000/svg">
<g clip-path="url(#clip0_388_4872)">
<path d="M20 40C31.0457 40 40 31.0457 40 20C40 8.95431 31.0457 0 20 0C8.95431 0 0 8.95431 0 20C0 31.0457 8.95431 40 20 40Z" fill="white"/>
<path d="M29.866 14.9164C29.7481 14.4771 29.5167 14.0765 29.1951 13.7548C28.8734 13.4332 28.4728 13.2018 28.0335 13.0839C26.4186 12.6504 19.9349 12.6504 19.9349 12.6504C19.9349 12.6504 13.4511 12.6504 11.8344 13.0839C11.3956 13.2028 10.9955 13.4346 10.674 13.7561C10.3525 14.0776 10.1208 14.4776 10.0018 14.9164C9.56835 16.5332 9.56836 19.9062 9.56836 19.9062C9.56836 19.9062 9.56835 23.2792 10.0018 24.896C10.1208 25.3348 10.3525 25.7349 10.674 26.0563C10.9955 26.3778 11.3956 26.6096 11.8344 26.7285C13.4511 27.162 19.9349 27.162 19.9349 27.162C19.9349 27.162 26.4167 27.162 28.0335 26.7285C28.4728 26.6106 28.8734 26.3792 29.1951 26.0576C29.5167 25.7359 29.7481 25.3353 29.866 24.896C30.2995 23.2792 30.2995 19.9062 30.2995 19.9062C30.2995 19.9062 30.2995 16.5332 29.866 14.9164ZM17.8604 23.015V16.7974L23.2558 19.9062L17.8604 23.015Z" fill="#111111"/>
</g>
<defs>
<clipPath id="clip0_388_4872">
<rect width="40" height="40" fill="white"/>
</clipPath>
</defs>
</svg>
