<svg xmlns="http://www.w3.org/2000/svg">
  <symbol id="arrow-right" viewBox="0 0 24 24" fill="none">
  <path d="M6 17L11 12L6 7M13 17L18 12L13 7" stroke-linecap="round" stroke-linejoin="round" />
</symbol>
<symbol id="double-arrow" viewBox="0 0 22 19" fill="none">
  <path d="M21 0.99996L12.6667 9.33329L21 17.6666M9.33333 0.999961L1 9.33329L9.33333 17.6666" stroke-width="2" stroke-linecap="round" stroke-linejoin="round" />  
</symbol>
<symbol  id="product-cart" viewBox="0 0 22 22" fill="none">
  <path d="M1 1H2.91667L5.46583 12.9025C5.55935 13.3384 5.80189 13.7281 6.15172 14.0044C6.50155 14.2808 6.93679 14.4266 7.3825 14.4167H16.755C17.1912 14.416 17.6141 14.2665 17.9539 13.9929C18.2937 13.7194 18.53 13.3381 18.6238 12.9121L20.205 5.79167H3.94208M7.66042 19.1604C7.66042 19.6897 7.23136 20.1188 6.70208 20.1188C6.17281 20.1188 5.74375 19.6897 5.74375 19.1604C5.74375 18.6311 6.17281 18.2021 6.70208 18.2021C7.23136 18.2021 7.66042 18.6311 7.66042 19.1604ZM18.2021 19.1604C18.2021 19.6897 17.773 20.1188 17.2438 20.1188C16.7145 20.1188 16.2854 19.6897 16.2854 19.1604C16.2854 18.6311 16.7145 18.2021 17.2438 18.2021C17.773 18.2021 18.2021 18.6311 18.2021 19.1604Z" stroke="#FFEA00" stroke-width="2" stroke-linecap="round" stroke-linejoin="round" />
</symbol>
</svg>