<svg xmlns="http://www.w3.org/2000/svg">
<symbol id="arrow"  viewBox="0 0 28 25" >
  <path fill-rule="evenodd" clip-rule="evenodd" d="M24.9974 13.0109L0.806042 12.8057C0.353791 12.8018 -0.0083874 12.4296 0.000107033 11.9774C0.0084787 11.5318 0.374125 11.176 0.819838 11.1798L25.1461 11.3862L15.8103 1.37472C15.5024 1.04457 15.5205 0.527345 15.8506 0.219473C16.1808 -0.0883981 16.698 -0.0703352 17.0059 0.259817L27.5044 11.5181C27.881 11.922 27.8589 12.5548 27.455 12.9314L15.5336 24.0483C15.2069 24.3531 14.6949 24.3352 14.3902 24.0084C14.0855 23.6816 14.1034 23.1697 14.4302 22.865L24.9974 13.0109Z"  />
</symbol>
<symbol id="arrow-down" width="10" height="17" viewBox="0 0 10 17" fill="none">
  <path d="M1.36682 8.64018C0.824047 7.98886 1.2872 7 2.13504 7H7.86496C8.7128 7 9.17595 7.98886 8.63318 8.64018L5.76822 12.0781C5.36843 12.5579 4.63157 12.5579 4.23178 12.0781L1.36682 8.64018Z" fill="#111111" />
</symbol>
<symbol id="plus" viewBox="0 0 20 20" fill="none">
  <path d="M10.0003 19L10.0346 10M10.0003 1L10.0346 10M10.0346 10H19M10.0346 10H0.999999" stroke="#111111" stroke-width="2" stroke-linecap="round" />
</symbol>
<symbol id="minus" viewBox="0 0 20 2" fill="none">
  <path d="M19 1H1" stroke="#ABABAB" stroke-width="2" stroke-linecap="round" />
</symbol>
</svg>