<svg width="40" height="40" viewBox="0 0 40 40" fill="none" xmlns="http://www.w3.org/2000/svg">
<g clip-path="url(#clip0_388_4868)">
<path d="M20 40C31.0457 40 40 31.0457 40 20C40 8.95431 31.0457 0 20 0C8.95431 0 0 8.95431 0 20C0 31.0457 8.95431 40 20 40Z" fill="white"/>
<path d="M20.733 27.3746C12.9786 27.3746 8.55812 22.0574 8.37207 13.209H12.2549C12.3832 19.702 15.2465 22.4536 17.5144 23.0211V13.209H21.1739V18.809C23.4065 18.569 25.7674 16.0183 26.56 13.209H30.2195C29.6093 16.6676 27.0567 19.2201 25.2428 20.2694C26.6615 20.974 27.9145 21.9716 28.919 23.1965C29.9235 24.4213 30.6566 25.8454 31.0697 27.3746H27.0437C26.1786 24.6806 24.0223 22.5969 21.1739 22.3141V27.3746H20.733Z" fill="#111111"/>
</g>
<defs>
<clipPath id="clip0_388_4868">
<rect width="40" height="40" fill="white"/>
</clipPath>
</defs>
</svg>
