<svg viewBox="0 0 28 28" fill="none" xmlns="http://www.w3.org/2000/svg">
<path fill-rule="evenodd" clip-rule="evenodd" d="M27.1632 1.70714C27.5537 1.31661 27.5537 0.683446 27.1632 0.292922C26.7726 -0.097602 26.1395 -0.0976024 25.7489 0.292922L13.728 12.3138L1.70711 0.292922C1.31658 -0.0976025 0.683417 -0.0976021 0.292894 0.292922C-0.0976304 0.683446 -0.0976307 1.31661 0.292894 1.70714L12.3138 13.7281L0.293107 25.7488C-0.0974173 26.1393 -0.0974173 26.7725 0.293107 27.163C0.683631 27.5535 1.3168 27.5535 1.70732 27.163L13.728 15.1423L25.7487 27.163C26.1393 27.5535 26.7724 27.5535 27.163 27.163C27.5535 26.7724 27.5535 26.1393 27.163 25.7488L15.1422 13.7281L27.1632 1.70714Z" fill="#C5358C"/>
</svg>
